PathFileType  4	(X/Y/Z) C:\Users\antoi\Documents\MyRepositories\mobilecap\ResultsAnalysis
DataRate	CameraRate	NumFrames	NumMarkers	Units	OrigDataRate	OrigDataStartFrame	OrigNumFrames
100.0	100.0	4	51	mm	100.0	196	260
Frame#	Time	r_knee			r_shank_antsup			r_ankle			r_calc			r_5meta			r_toe			L_knee			L_shank_antsup			L_ankle			L_calc			L_5meta			L_toe			r_sh2			r_sh3			r_sh4			L_sh2			L_sh3			r_thigh1			r_thigh2			r_thigh3			r_thigh4			r_thigh5			L_thigh1			L_thigh2			L_thigh3			L_thigh4			r.ASIS			r.PSIS			L.ASIS			L.PSIS			C7			R_Shoulder			L_Shoulder			R_Sternum			L_Sternum			R_humerus			R_elbow_med			R_elbow_lat			R_forearm			R_wrist_radius			R_wrist_ulna			L_humerus			L_elbow_med			L_elbow_lat			L_forearm			L_wrist_radius			L_wrist_ulna			R_HJC			L_HJC			R_HJC_reg			L_HJC_reg			
		X1	Y1	Z1	X2	Y2	Z2	X3	Y3	Z3	X4	Y4	Z4	X5	Y5	Z5	X6	Y6	Z6	X7	Y7	Z7	X8	Y8	Z8	X9	Y9	Z9	X10	Y10	Z10	X11	Y11	Z11	X12	Y12	Z12	X13	Y13	Z13	X14	Y14	Z14	X15	Y15	Z15	X16	Y16	Z16	X17	Y17	Z17	X18	Y18	Z18	X19	Y19	Z19	X20	Y20	Z20	X21	Y21	Z21	X22	Y22	Z22	X23	Y23	Z23	X24	Y24	Z24	X25	Y25	Z25	X26	Y26	Z26	X27	Y27	Z27	X28	Y28	Z28	X29	Y29	Z29	X30	Y30	Z30	X31	Y31	Z31	X32	Y32	Z32	X33	Y33	Z33	X34	Y34	Z34	X35	Y35	Z35	X36	Y36	Z36	X37	Y37	Z37	X38	Y38	Z38	X39	Y39	Z39	X40	Y40	Z40	X41	Y41	Z41	X42	Y42	Z42	X43	Y43	Z43	X44	Y44	Z44	X45	Y45	Z45	X46	Y46	Z46	X47	Y47	Z47	X48	Y48	Z48	X49	Y49	Z49	X50	Y50	Z50	X51	Y51	Z51	

196	1.95000000	-69.05482	441.38704	-428.33677	-57.29458	339.16637	-429.20030	-289.02407	109.49266	-387.82968	-368.04211	81.97443	-429.40657	-187.44460	42.36607	-347.72827	-150.93822	67.60647	-402.96087	-43.97825	465.94645	-734.97321	-21.28685	368.13072	-727.40342	-236.73718	111.09764	-741.79235	-320.71007	77.18368	-688.17552	-154.57143	41.11693	-787.38037	-97.58708	60.78237	-737.21943	-122.34403	245.59334	-416.87790	-106.89846	378.20318	-386.88747	-176.60210	289.17058	-369.61943	-86.59681	418.79169	-763.79732	-147.88907	314.47116	-776.82326	-196.24671	683.51322	-392.93719	-124.24808	604.58555	-416.90261	-143.68393	546.04681	-386.19136	-277.00930	604.60365	-380.11618	-194.32161	524.05835	-402.29690	-146.82912	697.32298	-725.41305	-46.97747	601.09927	-707.76916	-212.18149	625.93909	-775.87492	-119.01155	532.52011	-751.59058	-216.53548	784.39548	-434.20324	-391.65656	883.60719	-518.37723	-195.25782	792.08656	-677.25185	-380.32058	888.91543	-615.11858	-152.90495	1285.96178	-548.43617	-90.24441	1292.09247	-439.50327	-91.41872	1287.77467	-637.86853	-27.61426	1220.81994	-552.32638	-60.38926	1201.77940	-548.40907	-24.74428	1328.68556	-407.51149	179.25082	1322.12757	-352.93177	149.02141	1363.09786	-301.32669	131.62838	1439.79925	-353.37184	131.94567	1538.48168	-481.65302	173.34159	1554.24301	-459.02485	-22.72348	1325.74943	-673.59330	168.23305	1336.48848	-737.48464	121.49699	1394.39821	-775.71956	117.11108	1446.07959	-718.61686	145.46800	1543.91666	-584.22778	172.17538	1570.17683	-622.04596	-320.26221	729.34259	-465.12832	-302.91648	737.03304	-653.73933	-306.52271	736.22614	-481.78806	-287.80030	744.99272	-641.56133	
197	1.96000000	-70.63199	448.22380	-426.80976	-58.44313	345.55887	-427.68544	-286.98525	112.34281	-387.15559	-366.17656	86.93546	-428.98788	-186.65846	42.36525	-347.69183	-149.65787	67.40103	-402.52189	-45.24707	471.55832	-734.40366	-22.70596	374.00154	-727.71058	-234.73201	113.94097	-742.38800	-318.96110	82.05577	-688.71556	-153.70937	41.51436	-787.34510	-96.44233	60.52420	-737.48449	-121.87561	250.94778	-415.54700	-108.59805	383.63948	-385.32366	-177.08040	293.50402	-368.61264	-88.94767	423.91843	-763.53712	-148.79472	319.52809	-777.83667	-189.41196	695.34664	-392.45483	-120.10982	613.72748	-415.89815	-141.52220	555.94236	-385.24738	-272.88495	619.10885	-379.09451	-193.03821	536.03631	-400.64533	-139.88828	706.81959	-724.78811	-43.52945	606.97578	-707.32968	-207.87242	637.73869	-774.76288	-118.02221	540.94414	-750.97623	-209.59426	801.21911	-433.61080	-384.76834	899.32423	-518.19648	-187.84289	807.76739	-676.29529	-373.28877	904.26961	-615.15577	-159.96005	1303.07689	-546.98020	-93.79864	1314.70759	-439.42104	-94.80027	1308.98816	-636.26020	-33.19951	1239.04221	-557.04134	-68.86840	1213.04816	-544.14512	-30.23618	1353.27573	-408.06733	173.92219	1353.84294	-352.99367	141.74249	1393.79861	-301.27201	121.38237	1469.62183	-353.46787	118.37273	1569.57664	-481.45504	158.83171	1587.02822	-458.04185	-29.80233	1350.28814	-673.03388	159.85536	1367.94137	-739.05956	110.98448	1424.84592	-776.00381	106.24385	1475.08625	-717.41394	133.26806	1571.71102	-581.51015	158.04379	1599.67876	-619.48012	-312.99752	745.60613	-464.24327	-295.34718	752.47247	-652.85697	-299.17809	752.52258	-481.03536	-280.28827	760.66199	-640.58694	
198	1.97000000	-72.46858	456.39908	-424.69769	-60.02176	352.88330	-425.62030	-284.73340	115.54747	-386.39387	-364.01050	92.53110	-428.47803	-185.88260	42.63419	-347.41139	-148.13408	67.31481	-402.07546	-47.03516	477.97270	-733.96298	-24.62973	380.61666	-728.14568	-232.60288	116.95795	-742.78429	-316.98459	87.24869	-689.38128	-152.82066	42.04468	-787.47632	-95.21497	60.41323	-737.83210	-121.56497	257.07972	-413.77539	-110.61813	389.65789	-382.80198	-177.66277	298.45364	-367.06362	-91.72413	429.79142	-763.79255	-149.96549	324.75376	-778.59475	-182.93827	708.02360	-391.74884	-116.35024	623.71243	-414.62092	-139.72261	566.97078	-383.62591	-268.87254	634.42565	-378.01752	-192.10666	549.05045	-398.51669	-133.26891	716.83381	-724.43802	-40.58636	613.15448	-706.89082	-204.02233	650.27386	-773.91570	-117.69283	550.14285	-750.66185	-202.51880	819.05703	-432.99059	-378.02596	915.63754	-518.24213	-180.51448	824.41368	-675.11741	-366.43728	920.16821	-615.31835	-164.94292	1322.52184	-545.87905	-97.60882	1337.94384	-438.90522	-98.44952	1331.15504	-635.06097	-37.91804	1255.94878	-559.92300	-74.07717	1228.08398	-539.70156	-35.69860	1378.22461	-407.11022	169.10214	1384.60611	-353.33095	135.42795	1423.37789	-301.38214	112.76599	1498.83425	-352.82123	106.71078	1600.68994	-479.63471	146.41108	1619.30121	-456.03349	-37.30214	1375.44173	-673.86050	151.77808	1398.77545	-740.76860	101.03613	1454.55474	-776.12006	96.03094	1503.79061	-716.97335	121.75802	1598.66526	-579.01416	144.56806	1628.66218	-617.22187	-305.58426	762.68854	-463.29025	-287.60087	768.59674	-651.90465	-291.64329	769.69509	-480.16888	-272.63875	777.12501	-639.36839	
199	1.98000000	-74.96618	465.12779	-422.05536	-62.16845	361.14133	-423.02283	-282.25185	119.08009	-385.54896	-361.36642	98.73261	-427.89004	-185.02187	43.07524	-347.13022	-146.46811	67.23988	-401.58049	-49.47184	485.19698	-734.12149	-27.21276	388.00659	-728.74701	-230.25526	120.15676	-743.27869	-314.79212	92.81862	-690.08589	-151.95937	42.71527	-787.81733	-94.00558	60.24050	-738.18259	-121.58097	264.02481	-411.58242	-113.23844	396.45964	-379.50525	-178.63311	304.06058	-365.04503	-95.17783	436.05206	-764.07138	-151.56962	329.95680	-778.83124	-176.86993	721.57229	-390.84974	-113.12602	634.62695	-413.00014	-138.41929	579.01187	-381.55652	-265.17403	650.75295	-376.92009	-191.60534	563.08385	-396.06840	-127.00734	727.41085	-724.24108	-38.51519	619.87658	-706.97268	-200.81206	663.54852	-773.13984	-118.28300	560.18373	-750.69767	-195.12735	837.93383	-432.49680	-371.43192	932.46250	-518.48136	-173.01939	842.43627	-673.85077	-359.79918	936.52136	-615.36170	-168.62287	1343.89785	-544.77986	-101.78123	1361.71585	-438.13611	-102.95781	1354.65938	-635.59227	-41.42058	1273.32882	-561.58138	-67.74847	1255.00773	-531.50285	-41.02093	1403.31851	-405.51733	164.52631	1414.51194	-354.05442	130.21019	1451.81236	-301.62280	105.85275	1527.48779	-351.58419	97.10814	1631.77698	-476.18685	136.16060	1651.05934	-452.94357	-44.50556	1400.88115	-674.99065	144.09205	1429.31267	-742.61135	91.68229	1483.88558	-776.14113	86.23850	1532.29748	-716.93604	111.55930	1625.53040	-576.51990	131.76328	1657.45251	-615.45982	-297.69997	780.47482	-462.42265	-279.40601	785.60183	-651.03110	-283.66922	787.89960	-479.32775	-264.61223	794.54765	-638.03719	
